<mxfile host="app.diagrams.net" modified="2024-06-21T07:12:13.417Z" agent="Mozilla/5.0 (Macintosh; Intel Mac OS X 10_15_7) AppleWebKit/537.36 (KHTML, like Gecko) Chrome/125.0.0.0 Safari/537.36" etag="lCOQSWpAPjIxgc_nhlQg" version="24.6.0" type="github">
  <diagram name="Page-1" id="WB1oEXCILZQLO19CDaSL">
    <mxGraphModel dx="1137" dy="790" grid="1" gridSize="10" guides="1" tooltips="1" connect="1" arrows="1" fold="1" page="1" pageScale="1" pageWidth="827" pageHeight="1169" math="0" shadow="0">
      <root>
        <mxCell id="0" />
        <mxCell id="1" parent="0" />
        <mxCell id="aRKcsi9B8JBcMBqtivk3-1" value="MongoDB" style="shape=cylinder3;whiteSpace=wrap;html=1;boundedLbl=1;backgroundOutline=1;size=15;fillColor=#d0cee2;strokeColor=#56517e;" vertex="1" parent="1">
          <mxGeometry x="80" y="390" width="110" height="80" as="geometry" />
        </mxCell>
        <mxCell id="aRKcsi9B8JBcMBqtivk3-4" value="" style="rounded=1;whiteSpace=wrap;html=1;" vertex="1" parent="1">
          <mxGeometry x="350" y="260" width="160" height="230" as="geometry" />
        </mxCell>
        <mxCell id="aRKcsi9B8JBcMBqtivk3-23" style="edgeStyle=orthogonalEdgeStyle;rounded=0;orthogonalLoop=1;jettySize=auto;html=1;entryX=0.5;entryY=1;entryDx=0;entryDy=0;" edge="1" parent="1" target="aRKcsi9B8JBcMBqtivk3-21">
          <mxGeometry relative="1" as="geometry">
            <mxPoint x="430" y="260" as="sourcePoint" />
          </mxGeometry>
        </mxCell>
        <mxCell id="aRKcsi9B8JBcMBqtivk3-6" value="Spring Microservice" style="rounded=1;whiteSpace=wrap;html=1;fillStyle=solid;fillColor=#0050ef;fontColor=#ffffff;strokeColor=#001DBC;" vertex="1" parent="1">
          <mxGeometry x="370" y="290" width="120" height="60" as="geometry" />
        </mxCell>
        <mxCell id="aRKcsi9B8JBcMBqtivk3-7" value="Kafka Consumer" style="rounded=1;whiteSpace=wrap;html=1;fillStyle=solid;fillColor=#a20025;fontColor=#ffffff;strokeColor=#6F0000;" vertex="1" parent="1">
          <mxGeometry x="360" y="395" width="140" height="70" as="geometry" />
        </mxCell>
        <mxCell id="aRKcsi9B8JBcMBqtivk3-8" value="Kafka Broker" style="rounded=1;whiteSpace=wrap;html=1;fillStyle=solid;fillColor=#76608a;fontColor=#ffffff;strokeColor=#432D57;" vertex="1" parent="1">
          <mxGeometry x="570" y="370" width="210" height="73" as="geometry" />
        </mxCell>
        <mxCell id="aRKcsi9B8JBcMBqtivk3-9" value="Kafka Publisher - 1" style="rounded=1;whiteSpace=wrap;html=1;fillStyle=solid;fillColor=#0050ef;fontColor=#ffffff;strokeColor=#001DBC;" vertex="1" parent="1">
          <mxGeometry x="555" y="531" width="70" height="60" as="geometry" />
        </mxCell>
        <mxCell id="aRKcsi9B8JBcMBqtivk3-10" value="Kafka Publisher - 2" style="rounded=1;whiteSpace=wrap;html=1;fillColor=#0050ef;fontColor=#ffffff;strokeColor=#001DBC;" vertex="1" parent="1">
          <mxGeometry x="640" y="531" width="70" height="60" as="geometry" />
        </mxCell>
        <mxCell id="aRKcsi9B8JBcMBqtivk3-11" value="Kafka Publisher - 3" style="rounded=1;whiteSpace=wrap;html=1;fillColor=#0050ef;fontColor=#ffffff;strokeColor=#001DBC;" vertex="1" parent="1">
          <mxGeometry x="720" y="531" width="70" height="60" as="geometry" />
        </mxCell>
        <mxCell id="aRKcsi9B8JBcMBqtivk3-20" value="Angular Frontend" style="rounded=0;whiteSpace=wrap;html=1;fillColor=#008a00;fontColor=#ffffff;strokeColor=#005700;" vertex="1" parent="1">
          <mxGeometry x="360" y="33" width="140" height="60" as="geometry" />
        </mxCell>
        <mxCell id="aRKcsi9B8JBcMBqtivk3-21" value="&lt;span style=&quot;color: rgb(36, 36, 36); font-family: source-code-pro, Menlo, Monaco, &amp;quot;Courier New&amp;quot;, Courier, monospace; font-size: 14px; letter-spacing: -0.308px; text-align: start; white-space: pre; background-color: rgb(249, 249, 249);&quot;&gt;WebSocket&lt;/span&gt;" style="shape=process;whiteSpace=wrap;html=1;backgroundOutline=1;fillColor=#b1ddf0;strokeColor=#10739e;dashed=1;" vertex="1" parent="1">
          <mxGeometry x="360" y="135" width="140" height="60" as="geometry" />
        </mxCell>
        <mxCell id="aRKcsi9B8JBcMBqtivk3-26" value="" style="endArrow=classic;html=1;rounded=0;entryX=0.5;entryY=1;entryDx=0;entryDy=0;" edge="1" parent="1" source="aRKcsi9B8JBcMBqtivk3-7" target="aRKcsi9B8JBcMBqtivk3-6">
          <mxGeometry width="50" height="50" relative="1" as="geometry">
            <mxPoint x="390" y="430" as="sourcePoint" />
            <mxPoint x="440" y="380" as="targetPoint" />
          </mxGeometry>
        </mxCell>
        <mxCell id="aRKcsi9B8JBcMBqtivk3-30" value="" style="endArrow=classic;html=1;rounded=0;exitX=0.5;exitY=0;exitDx=0;exitDy=0;exitPerimeter=0;entryX=0;entryY=0.25;entryDx=0;entryDy=0;" edge="1" parent="1" source="aRKcsi9B8JBcMBqtivk3-1" target="aRKcsi9B8JBcMBqtivk3-4">
          <mxGeometry width="50" height="50" relative="1" as="geometry">
            <mxPoint x="390" y="430" as="sourcePoint" />
            <mxPoint x="440" y="380" as="targetPoint" />
            <Array as="points">
              <mxPoint x="135" y="318" />
            </Array>
          </mxGeometry>
        </mxCell>
        <mxCell id="aRKcsi9B8JBcMBqtivk3-32" value="S5: Async Save" style="text;html=1;align=center;verticalAlign=middle;whiteSpace=wrap;rounded=0;" vertex="1" parent="1">
          <mxGeometry x="256" y="353" width="94" height="30" as="geometry" />
        </mxCell>
        <mxCell id="aRKcsi9B8JBcMBqtivk3-35" value="S6: READ" style="text;html=1;align=center;verticalAlign=middle;whiteSpace=wrap;rounded=0;" vertex="1" parent="1">
          <mxGeometry x="170" y="293" width="60" height="30" as="geometry" />
        </mxCell>
        <mxCell id="aRKcsi9B8JBcMBqtivk3-44" value="" style="endArrow=classic;html=1;rounded=0;exitX=0;exitY=0.5;exitDx=0;exitDy=0;entryX=1;entryY=0.5;entryDx=0;entryDy=0;entryPerimeter=0;" edge="1" parent="1" source="aRKcsi9B8JBcMBqtivk3-4" target="aRKcsi9B8JBcMBqtivk3-1">
          <mxGeometry width="50" height="50" relative="1" as="geometry">
            <mxPoint x="-190" y="530" as="sourcePoint" />
            <mxPoint x="-140" y="480" as="targetPoint" />
            <Array as="points">
              <mxPoint x="260" y="375" />
              <mxPoint x="260" y="430" />
            </Array>
          </mxGeometry>
        </mxCell>
        <mxCell id="aRKcsi9B8JBcMBqtivk3-51" value="S3" style="ellipse;whiteSpace=wrap;html=1;" vertex="1" parent="1">
          <mxGeometry x="410" y="365" width="40" height="20" as="geometry" />
        </mxCell>
        <mxCell id="aRKcsi9B8JBcMBqtivk3-54" value="" style="endArrow=classic;html=1;rounded=0;entryX=0.5;entryY=1;entryDx=0;entryDy=0;" edge="1" parent="1" source="aRKcsi9B8JBcMBqtivk3-21" target="aRKcsi9B8JBcMBqtivk3-20">
          <mxGeometry width="50" height="50" relative="1" as="geometry">
            <mxPoint x="430" y="150" as="sourcePoint" />
            <mxPoint x="430" y="132" as="targetPoint" />
          </mxGeometry>
        </mxCell>
        <mxCell id="aRKcsi9B8JBcMBqtivk3-57" value="" style="endArrow=classic;html=1;rounded=0;entryX=1;entryY=0.5;entryDx=0;entryDy=0;" edge="1" parent="1" target="aRKcsi9B8JBcMBqtivk3-20">
          <mxGeometry width="50" height="50" relative="1" as="geometry">
            <mxPoint x="510" y="320" as="sourcePoint" />
            <mxPoint x="640" y="120" as="targetPoint" />
            <Array as="points">
              <mxPoint x="570" y="320" />
              <mxPoint x="570" y="63" />
            </Array>
          </mxGeometry>
        </mxCell>
        <mxCell id="aRKcsi9B8JBcMBqtivk3-60" value="S7: GET&amp;nbsp; /history&lt;div&gt;&lt;br&gt;&lt;/div&gt;" style="text;html=1;align=center;verticalAlign=middle;whiteSpace=wrap;rounded=0;textDirection=vertical-rl;" vertex="1" parent="1">
          <mxGeometry x="545" y="135" width="60" height="115" as="geometry" />
        </mxCell>
        <mxCell id="aRKcsi9B8JBcMBqtivk3-61" value="" style="endArrow=classic;html=1;rounded=0;exitX=0;exitY=0.5;exitDx=0;exitDy=0;entryX=0.5;entryY=1;entryDx=0;entryDy=0;" edge="1" parent="1" source="aRKcsi9B8JBcMBqtivk3-8" target="aRKcsi9B8JBcMBqtivk3-4">
          <mxGeometry width="50" height="50" relative="1" as="geometry">
            <mxPoint x="570" y="407" as="sourcePoint" />
            <mxPoint x="430" y="490" as="targetPoint" />
            <Array as="points">
              <mxPoint x="540" y="407" />
              <mxPoint x="540" y="520" />
              <mxPoint x="430" y="520" />
            </Array>
          </mxGeometry>
        </mxCell>
        <mxCell id="aRKcsi9B8JBcMBqtivk3-49" value="S2" style="ellipse;whiteSpace=wrap;html=1;" vertex="1" parent="1">
          <mxGeometry x="470" y="510" width="40" height="20" as="geometry" />
        </mxCell>
        <mxCell id="aRKcsi9B8JBcMBqtivk3-67" value="" style="endArrow=classic;html=1;rounded=0;entryX=0.148;entryY=1.014;entryDx=0;entryDy=0;entryPerimeter=0;" edge="1" parent="1">
          <mxGeometry width="50" height="50" relative="1" as="geometry">
            <mxPoint x="589" y="530" as="sourcePoint" />
            <mxPoint x="590.0799999999999" y="444.02199999999993" as="targetPoint" />
          </mxGeometry>
        </mxCell>
        <mxCell id="aRKcsi9B8JBcMBqtivk3-68" value="" style="endArrow=classic;html=1;rounded=0;entryX=0.148;entryY=1.014;entryDx=0;entryDy=0;entryPerimeter=0;" edge="1" parent="1">
          <mxGeometry width="50" height="50" relative="1" as="geometry">
            <mxPoint x="674.46" y="531" as="sourcePoint" />
            <mxPoint x="675.54" y="445.02199999999993" as="targetPoint" />
          </mxGeometry>
        </mxCell>
        <mxCell id="aRKcsi9B8JBcMBqtivk3-69" value="" style="endArrow=classic;html=1;rounded=0;entryX=0.148;entryY=1.014;entryDx=0;entryDy=0;entryPerimeter=0;" edge="1" parent="1">
          <mxGeometry width="50" height="50" relative="1" as="geometry">
            <mxPoint x="754.46" y="528.98" as="sourcePoint" />
            <mxPoint x="755.54" y="443.00199999999995" as="targetPoint" />
          </mxGeometry>
        </mxCell>
        <mxCell id="aRKcsi9B8JBcMBqtivk3-82" value="" style="edgeStyle=orthogonalEdgeStyle;rounded=0;orthogonalLoop=1;jettySize=auto;html=1;" edge="1" parent="1" source="aRKcsi9B8JBcMBqtivk3-74" target="aRKcsi9B8JBcMBqtivk3-9">
          <mxGeometry relative="1" as="geometry" />
        </mxCell>
        <mxCell id="aRKcsi9B8JBcMBqtivk3-74" value="S1a" style="ellipse;whiteSpace=wrap;html=1;" vertex="1" parent="1">
          <mxGeometry x="570" y="480" width="40" height="20" as="geometry" />
        </mxCell>
        <mxCell id="aRKcsi9B8JBcMBqtivk3-83" value="S1b" style="ellipse;whiteSpace=wrap;html=1;" vertex="1" parent="1">
          <mxGeometry x="653" y="480" width="40" height="20" as="geometry" />
        </mxCell>
        <mxCell id="aRKcsi9B8JBcMBqtivk3-84" value="S1c" style="ellipse;whiteSpace=wrap;html=1;" vertex="1" parent="1">
          <mxGeometry x="732" y="480" width="40" height="20" as="geometry" />
        </mxCell>
        <mxCell id="aRKcsi9B8JBcMBqtivk3-92" value="S4" style="ellipse;whiteSpace=wrap;html=1;" vertex="1" parent="1">
          <mxGeometry x="410" y="219" width="40" height="20" as="geometry" />
        </mxCell>
      </root>
    </mxGraphModel>
  </diagram>
</mxfile>
